<svg width="30" height="30" viewBox="0 0 30 30" fill="none" xmlns="http://www.w3.org/2000/svg">
<g clip-path="url(#clip0_135_3816)">
<path d="M15 0C6.7292 0 0 6.72885 0 15C0 23.2712 6.7292 30 15 30C23.2712 30 30 23.2712 30 15C30 6.72885 23.2708 0 15 0ZM15 27.8102C7.93652 27.8102 2.18977 22.0635 2.18977 15C2.18977 7.93652 7.93652 2.18977 15 2.18977C22.0635 2.18977 27.8102 7.93647 27.8102 14.9996C27.8102 22.0635 22.0635 27.8102 15 27.8102Z" fill="black"/>
<path d="M20.1091 15.0001H15.3646V8.4307C15.3646 7.82595 14.8744 7.33582 14.2697 7.33582C13.6649 7.33582 13.1748 7.82595 13.1748 8.4307V16.0949C13.1748 16.6997 13.6649 17.1898 14.2697 17.1898H20.1091C20.7138 17.1898 21.204 16.6997 21.204 16.0949C21.204 15.4902 20.7138 15.0001 20.1091 15.0001Z" fill="black"/>
</g>
<defs>
<clipPath id="clip0_135_3816">
<rect width="30" height="30" fill="white"/>
</clipPath>
</defs>
</svg>
