<svg width="24" height="30" viewBox="0 0 24 30" fill="none" xmlns="http://www.w3.org/2000/svg">
<path d="M21.0033 14.194L16.7578 9.94846V2.63672C16.7578 1.18283 15.575 0 14.1211 0H2.63672C1.18283 0 0 1.18283 0 2.63672V27.3633C0 28.8172 1.18283 30 2.63672 30H20.5664C20.9851 30 21.3456 29.7047 21.4281 29.2942L23.066 21.141C23.5776 18.5942 22.8065 15.9972 21.0033 14.194ZM2.63672 1.75781H14.1211C14.6057 1.75781 15 2.15209 15 2.63672V13.9734C13.922 12.9101 12.1901 12.916 11.1195 13.9866C10.0465 15.0578 10.0414 16.7967 11.1123 17.8748L14.4789 21.3748C13.749 21.9195 12.8036 22.8702 12.1246 24.4336H1.75781V2.63672C1.75781 2.15209 2.15203 1.75781 2.63672 1.75781ZM1.75781 27.3633V26.1914H11.5564C11.4171 26.8077 11.3185 27.4891 11.2751 28.2422H2.63672C2.15203 28.2422 1.75781 27.8479 1.75781 27.3633ZM21.3426 20.7948L19.8465 28.2422C18.4332 28.2422 14.4881 28.2422 13.037 28.2422C13.1637 26.3753 13.7011 24.8108 14.61 23.6815C15.3635 22.7453 16.1307 22.4096 16.1919 22.3839C16.767 22.1781 16.9725 21.4316 16.5124 20.9532C12.3567 16.6328 12.3694 16.6459 12.3619 16.6385C11.9759 16.2525 11.9698 15.6216 12.3619 15.2301C12.7494 14.8427 13.3792 14.8416 13.768 15.2272C15.6261 17.1278 14.7226 16.2158 17.9742 19.4673C18.3173 19.8105 18.8739 19.8106 19.2171 19.4673C19.5604 19.1241 19.5604 18.5676 19.2171 18.2244L16.7578 15.7651V12.4344L19.7603 15.4369C21.1465 16.8231 21.7381 18.8261 21.3426 20.7948Z" fill="black"/>
</svg>
